<svg xmlns="http://www.w3.org/2000/svg" viewBox="0 0 720.96 713.1"><defs><style>.cls-1{fill:#e0e0e0;}.cls-2{fill:#3a7f0d;}.cls-3{fill:#49a010;}.cls-4{fill:#e74424;}.cls-5{fill:#f7f1e6;}</style></defs><title>crop-doc-logo</title><g id="Layer_2" data-name="Layer 2"><g id="Layer_1-2" data-name="Layer 1"><circle class="cls-1" cx="374.12" cy="366.26" r="346.84"/><path class="cls-2" d="M512.78,131.17s44.53,109-146.34,182.14C262.73,353.06,183.07,455,278.18,612.36c7.88-70.35,41.65-225.48,186.89-260.88,0,0-135.18,50.54-147.12,279.35,69.46,9.75,232.36,16.3,280.73-125.07C662.54,319,512.78,131.17,512.78,131.17Z"/><path class="cls-3" d="M318,629.87C465.47,571,572.76,433.16,587.57,268.59c-30.15-81.31-74.79-137.42-74.79-137.42s44.53,109-146.34,182.14C262.73,353.06,183.07,455,278.18,612.36c7.88-70.35,41.65-225.48,186.89-260.88C465.06,351.48,330.29,401.9,318,629.87Z"/><circle class="cls-2" cx="263.47" cy="303.15" r="13.79"/><circle class="cls-3" cx="306.79" cy="289.37" r="9.85"/><circle class="cls-3" cx="297.93" cy="195.83" r="24.61"/><circle class="cls-3" cx="373.74" cy="251.95" r="7.88"/><circle class="cls-3" cx="439.72" cy="207.65" r="22.65"/><g id="Layer_2-2" data-name="Layer 2"><path class="cls-4" d="M165.4,115.86A5.48,5.48,0,0,1,176,117.24l8.74,102.19,16.38-59a5.47,5.47,0,0,1,10.61.24l9.12,39.57,15.57-65.44a5.48,5.48,0,0,1,10.75.51l11.62,82.86L264,201.29a5.48,5.48,0,0,1,5.23-3.86H392.49V169.22a47.17,47.17,0,0,0-47.17-47.17H270.43V47.17A47.16,47.16,0,0,0,223.26,0H191.72a47.17,47.17,0,0,0-47.17,47.17v74.88H69.66A47.17,47.17,0,0,0,22.5,169.22V198H135.91Z"/><path class="cls-4" d="M262,244.78a5.48,5.48,0,0,1-10.65-.86l-11-78.4L226.1,225.46a5.47,5.47,0,0,1-5.32,4.21h0a5.48,5.48,0,0,1-5.32-4.25l-9.52-41.32-18.75,67.58a5.48,5.48,0,0,1-5.27,4,4.36,4.36,0,0,1-.51,0,5.47,5.47,0,0,1-4.95-5l-9.2-107.53-22.32,62.21a5.46,5.46,0,0,1-5.15,3.62H23.23a47.17,47.17,0,0,0,46.43,39h74.89v74.88A47.18,47.18,0,0,0,191.72,370h31.55a47.17,47.17,0,0,0,47.17-47.18V247.94h74.88a47.18,47.18,0,0,0,46.56-39.56H273.28Z"/><path class="cls-5" d="M411.6,197.43H269.24a5.48,5.48,0,0,0-5.23,3.86l-5.21,16.84-11.62-82.86a5.47,5.47,0,0,0-10.74-.51L220.86,200.2l-9.12-39.57a5.47,5.47,0,0,0-10.61-.24l-16.38,59L176,117.24a5.48,5.48,0,0,0-10.61-1.38L135.92,198H5.47a5.47,5.47,0,0,0,0,10.94H139.76a5.46,5.46,0,0,0,5.16-3.62l22.32-62.21,9.2,107.53a5.46,5.46,0,0,0,4.95,5,4.36,4.36,0,0,0,.51,0,5.49,5.49,0,0,0,5.27-4l18.74-67.58,9.53,41.32a5.47,5.47,0,0,0,5.31,4.25h0a5.48,5.48,0,0,0,5.33-4.21l14.26-59.94,11,78.4a5.48,5.48,0,0,0,10.65.86l11.26-36.4H411.6a5.48,5.48,0,0,0,0-10.95Z"/></g></g></g></svg>